<svg width="86" height="23" viewBox="0 0 86 23" fill="none" xmlns="http://www.w3.org/2000/svg">
    <path clip-rule="evenodd" d="M48.9 0.87236L48.8998 0.821533C48.8815 0.823005 48.865 0.823982 48.8498 0.824885C48.8196 0.826675 48.7944 0.828171 48.7695 0.832631L48.5033 0.879116C48.0974 0.949954 47.6914 1.0208 47.286 1.09408C46.9852 1.1485 46.6847 1.20421 46.3842 1.25992L46.3839 1.25997L46.3837 1.26001L46.3835 1.26004L46.3834 1.26008L46.3832 1.26011C46.0982 1.31293 45.8133 1.36576 45.5281 1.41748C45.182 1.48022 44.8356 1.54192 44.4892 1.60362L44.4887 1.6037C44.1684 1.66076 43.848 1.71782 43.5278 1.77571C43.165 1.84127 42.8025 1.90837 42.4413 1.9809C42.4052 1.98813 42.3533 2.03691 42.3508 2.06994C42.3404 2.20234 42.3392 2.33681 42.351 2.46896C42.3544 2.50767 42.4078 2.56626 42.4462 2.57349C42.5394 2.59112 42.6337 2.60337 42.7279 2.61562C42.8295 2.62884 42.9311 2.64206 43.0314 2.66201C43.4899 2.75312 43.8668 2.96941 44.083 3.40404C44.3186 3.87713 44.4154 4.38609 44.4363 4.90899C44.4639 5.59579 44.4871 6.28284 44.4982 6.97015C44.5129 7.89877 44.5224 8.82766 44.5198 9.75629C44.5124 12.4353 44.5 15.1141 44.4845 17.7929C44.4819 18.2538 44.4709 18.7145 44.4598 19.1753V19.1755V19.1756V19.1758V19.1759L44.4597 19.1783C44.4542 19.4081 44.4487 19.6379 44.4443 19.8677C44.4403 20.0666 44.4368 20.2656 44.4333 20.4645L44.4333 20.4651L44.4333 20.4657L44.4333 20.4663L44.4333 20.4669C44.4276 20.7915 44.4218 21.1162 44.4143 21.4408C44.4123 21.5304 44.4295 21.5778 44.5327 21.5962C44.848 21.6519 45.1628 21.7104 45.4776 21.7689C45.9677 21.8599 46.4578 21.951 46.9495 22.0316C47.3963 22.105 47.8489 22.1467 48.3003 22.1883L48.3559 22.1934C48.5322 22.2097 48.7092 22.2163 48.8863 22.2229C49.0228 22.228 49.1594 22.2331 49.2956 22.2427C49.9672 22.2897 50.6388 22.2626 51.3021 22.1751C51.8398 22.1041 52.3723 21.974 52.8982 21.8359C53.5778 21.6573 54.2096 21.3577 54.8038 20.9832C55.4852 20.554 56.0766 20.0236 56.5738 19.3876C57.1233 18.6843 57.5217 17.9015 57.7965 17.0563C58.0052 16.4141 58.127 15.7534 58.2028 15.0808C58.3308 13.9457 58.2738 12.8248 57.9967 11.7178C57.8517 11.1386 57.6404 10.5817 57.3563 10.0549C57.0454 9.47858 56.6651 8.9531 56.1948 8.49446C55.8276 8.13648 55.4228 7.8309 54.9741 7.58157C54.4018 7.2636 53.7927 7.05738 53.1448 6.96963C52.3716 6.86459 51.603 6.90975 50.8382 7.05867C50.2069 7.18153 49.608 7.39497 49.0402 7.69565L49.0268 7.70272C48.9196 7.75944 48.8656 7.788 48.8389 7.77174C48.8118 7.75526 48.8128 7.69266 48.8148 7.56657L48.8149 7.55938L48.8147 7.55293L48.8144 7.54647C48.8161 7.15636 48.8172 6.76623 48.8183 6.37608V6.37603V6.37597V6.37592V6.37586C48.821 5.42439 48.8237 4.47287 48.8343 3.52147C48.8408 2.93722 48.8586 2.35309 48.8763 1.769V1.76882V1.76863V1.76845V1.76827C48.8844 1.50189 48.8925 1.23553 48.8995 0.969164C48.9004 0.937923 48.9002 0.906684 48.9 0.87236ZM53.6879 14.2701L53.6521 14.2727C53.6704 15.1009 53.595 15.924 53.4356 16.7339C53.3234 17.3038 53.1668 17.8685 52.9813 18.4193C52.748 19.1125 52.4061 19.7575 51.909 20.3036C51.3978 20.8652 50.7861 21.2276 49.9945 21.191C49.6901 21.1768 49.3862 21.1584 49.082 21.1399C48.9563 21.1321 48.9026 21.0746 48.8998 20.9357C48.8914 20.5251 48.8787 20.1146 48.866 19.704C48.8548 19.3413 48.8435 18.9786 48.8353 18.6159C48.8172 17.8251 48.8043 17.0343 48.7982 16.2435C48.7868 14.7602 48.7765 13.2767 48.7762 11.7934C48.7762 11.2519 48.783 10.7104 48.7898 10.1689V10.1688V10.1686V10.1685V10.1683C48.7949 9.76019 48.8001 9.35202 48.8023 8.9438C48.8031 8.82043 48.8255 8.76004 48.9584 8.71849C49.3738 8.58815 49.7905 8.47639 50.2291 8.46736C51.0289 8.4511 51.6873 8.7603 52.2253 9.33946C52.683 9.83217 52.973 10.4214 53.1895 11.0512C53.3631 11.5557 53.4906 12.0727 53.5471 12.6028C53.5883 12.9896 53.6182 13.3777 53.6481 13.7657L53.6481 13.7659L53.6482 13.7661L53.6482 13.7664L53.6482 13.7666L53.6482 13.7668C53.6611 13.9346 53.6741 14.1024 53.6879 14.2701ZM13.6852 8.3564V8.09804H13.6852C13.4731 8.09804 13.2768 8.09804 13.081 8.09882C12.8132 8.09882 12.8131 8.09957 12.7635 8.35792L12.7613 8.36956C12.6439 8.97995 12.4548 9.56402 12.0871 10.0748C11.8229 10.4418 11.4865 10.711 11.0458 10.8511C10.7929 10.9315 10.5369 10.9407 10.2796 10.95C10.2334 10.9517 10.1872 10.9533 10.141 10.9554C9.95337 10.964 9.76575 10.9723 9.57813 10.9807C9.09173 11.0023 8.60527 11.024 8.11894 11.0491C8.00207 11.0553 7.97652 11.0174 7.97807 10.9046C7.98645 10.3371 7.99249 9.76969 7.99853 9.20228C8.00403 8.68627 8.00952 8.17029 8.01677 7.65437C8.024 7.1258 8.03999 6.59722 8.05702 6.06889C8.0711 5.62953 8.08598 5.19017 8.10087 4.7508L8.10087 4.75079C8.1228 4.10332 8.14473 3.45584 8.1641 2.80837C8.16745 2.69507 8.19196 2.65481 8.31477 2.65532C9.42421 2.66023 10.5337 2.65919 11.6431 2.65739C12.0964 2.65661 12.5404 2.7121 12.9791 2.82954C13.6001 2.99575 14.146 3.29333 14.6233 3.72255C15.2562 4.29139 15.7021 4.99418 16.0509 5.75866C16.2104 6.1083 16.3474 6.46821 16.4843 6.82799C16.5303 6.94891 16.5763 7.06982 16.6232 7.19032C16.6479 7.25433 16.6645 7.28375 16.7398 7.25949C17.0048 7.17406 17.2713 7.09276 17.5389 7.01481C17.6098 6.99417 17.632 6.95726 17.6286 6.88628C17.6188 6.68471 17.6126 6.48262 17.6083 6.28079L17.6004 5.92389C17.5879 5.35548 17.5754 4.78691 17.5662 4.21835C17.5507 3.25952 17.5365 2.3007 17.5288 1.34187C17.5278 1.21902 17.4898 1.19321 17.3748 1.19321C12.9324 1.19524 8.49014 1.19551 4.04783 1.19579L0.411184 1.19605C0.371919 1.19605 0.332769 1.19958 0.28972 1.20347H0.289714H0.28971C0.267982 1.20543 0.245262 1.20748 0.221032 1.20921C0.221032 1.2797 0.221713 1.34929 0.222389 1.41825C0.22399 1.58158 0.225555 1.74131 0.217935 1.90065C0.211485 2.03254 0.251993 2.07796 0.385641 2.08803C0.702218 2.11203 1.01931 2.1412 1.33228 2.19204C1.95846 2.29425 2.4363 2.61222 2.72939 3.18958C2.95825 3.64125 3.07719 4.12698 3.12621 4.62175C3.20568 5.42495 3.25599 6.23175 3.29418 7.0383C3.33159 7.82394 3.35145 8.61114 3.35584 9.39755C3.36255 10.567 3.35687 11.7369 3.34113 12.9064C3.32817 13.8784 3.30023 14.8501 3.2723 15.8219L3.2723 15.8219L3.26605 16.0394C3.26327 16.1369 3.26069 16.2343 3.25811 16.3318C3.23753 17.11 3.21694 17.8883 3.09061 18.6601C3.01501 19.1208 2.91155 19.5709 2.68734 19.9831C2.46313 20.3953 2.13984 20.698 1.67233 20.8113C1.51126 20.8505 1.34773 20.8796 1.18425 20.9087L1.18422 20.9087C1.09867 20.9239 1.01314 20.9392 0.927976 20.9558C0.765707 20.9877 0.603563 21.0207 0.439735 21.054L0.221289 21.0983C0.221289 21.1549 0.221114 21.2106 0.220941 21.2657V21.2657V21.2658V21.2658V21.2658C0.220386 21.4423 0.219851 21.6124 0.225159 21.7823C0.226191 21.8104 0.27573 21.8468 0.310303 21.861C0.333609 21.8706 0.361928 21.8686 0.390179 21.8666C0.401959 21.8657 0.413728 21.8649 0.425116 21.8649H11.1064C11.1193 21.8649 11.1323 21.8645 11.1452 21.8642H11.1452C11.1711 21.8636 11.1969 21.863 11.2225 21.8649C11.2963 21.8703 11.3216 21.8347 11.3208 21.765C11.3201 21.698 11.3202 21.631 11.3204 21.564C11.3206 21.4374 11.3208 21.3109 11.3154 21.1845C11.3141 21.1497 11.2674 21.0929 11.2341 21.0867C11.15 21.071 11.0659 21.0545 10.9818 21.0379C10.7123 20.9849 10.4425 20.9318 10.1701 20.9078C9.41879 20.8415 8.87672 20.4995 8.57252 19.7975C8.32509 19.2266 8.22318 18.6206 8.17442 18.0097C8.10811 17.183 8.07173 16.3537 8.04232 15.525C8.01815 14.8447 8.00596 14.1641 7.99377 13.4836L7.99377 13.4835L7.99377 13.4835L7.99377 13.4834C7.98956 13.2485 7.98535 13.0135 7.98065 12.7786C7.97785 12.6312 7.97861 12.4837 7.97939 12.3334V12.3334V12.3334V12.3334V12.3334C7.97976 12.2624 7.98014 12.1908 7.98014 12.1184L8.02816 12.1182C8.05628 12.118 8.07864 12.1178 8.10088 12.1187C8.29446 12.1258 8.48804 12.1325 8.68161 12.1392C9.16218 12.1557 9.64267 12.1722 10.1229 12.1969L10.124 12.1969C10.4142 12.2119 10.7107 12.2271 10.9898 12.2993C11.5899 12.4544 11.994 12.8643 12.284 13.398C12.5472 13.8827 12.6929 14.4067 12.799 14.943C12.8188 15.0442 12.863 15.0653 12.9538 15.063C13.0989 15.0592 13.2441 15.0606 13.3894 15.062H13.3895H13.3895H13.3895H13.3895L13.5085 15.063L13.5108 15.063C13.685 15.064 13.6852 15.064 13.6852 14.886V8.3564ZM15.4619 14.5114C15.4637 13.8006 15.5496 13.1014 15.7119 12.4141C15.8796 11.7033 16.1312 11.0227 16.4906 10.3811C16.8263 9.78202 17.23 9.23872 17.7197 8.7597C18.2342 8.25641 18.8158 7.84759 19.4618 7.526C20.0299 7.24339 20.6247 7.04027 21.2418 6.90864C21.5429 6.84429 21.8508 6.80902 22.158 6.77383L22.1582 6.77381C22.2181 6.76694 22.278 6.76008 22.3378 6.753C23.1031 6.66216 23.866 6.71119 24.624 6.82785C25.7601 7.00284 26.814 7.39102 27.74 8.08633C28.4544 8.62265 29.0285 9.28389 29.4643 10.0657C29.792 10.6536 30.0314 11.2741 30.2017 11.9255C30.3985 12.6781 30.5025 13.4426 30.5033 14.2174C30.5038 14.7483 30.4772 15.2823 30.4153 15.8093C30.3291 16.5444 30.1227 17.2523 29.8263 17.9335C29.537 18.5986 29.1645 19.2115 28.6975 19.7646C28.3628 20.1608 27.9815 20.5108 27.5646 20.819C27.08 21.1769 26.556 21.4663 25.9948 21.6875C25.4584 21.8988 24.9055 22.0483 24.3364 22.1407C23.728 22.2395 23.1147 22.2803 22.5004 22.2537C21.8185 22.224 21.1435 22.1402 20.4804 21.9564C19.6269 21.72 18.8426 21.3512 18.1454 20.8061C17.5683 20.3546 17.0876 19.8152 16.6978 19.1912C16.3523 18.6383 16.0889 18.0509 15.8961 17.4307C15.7354 16.9135 15.6195 16.3849 15.5643 15.846C15.5334 15.5416 15.5125 15.2362 15.4916 14.9308L15.4916 14.9307L15.4916 14.9307L15.4916 14.9307L15.4916 14.9306L15.4916 14.9306L15.4916 14.9305C15.482 14.7908 15.4724 14.651 15.4619 14.5114ZM25.9301 14.3088C25.9214 14.1738 25.9122 14.0373 25.9028 13.8999C25.8823 13.5986 25.8615 13.2924 25.8462 12.986C25.8114 12.2806 25.7059 11.5848 25.542 10.9001C25.3457 10.0796 25.0799 9.28492 24.5564 8.60149C24.2197 8.16195 23.8069 7.83649 23.2548 7.72396C22.5669 7.58381 21.957 7.75467 21.4523 8.24144C21.0844 8.59632 20.8623 9.04928 20.6897 9.52392C20.5073 10.0251 20.3919 10.5439 20.3073 11.0704C20.1907 11.7972 20.1264 12.5287 20.1071 13.2635C20.0919 13.8388 20.0919 14.4146 20.0947 14.9901C20.0988 15.8336 20.1788 16.6711 20.3282 17.5011C20.443 18.1389 20.6027 18.7643 20.8522 19.3659C21.0225 19.777 21.2268 20.1662 21.5112 20.5074C22.1232 21.2415 22.8747 21.4614 23.7703 21.1767C24.3227 21.0012 24.7007 20.5978 24.9816 20.1043C25.396 19.3762 25.5862 18.5751 25.7038 17.7569C25.7786 17.2348 25.8271 16.7075 25.8602 16.1807C25.8869 15.7519 25.8994 15.3221 25.9121 14.8867L25.9121 14.8863C25.9176 14.695 25.9232 14.5026 25.9301 14.3088ZM72.7295 19.149C72.6999 19.1134 72.6701 19.0776 72.6403 19.0415C72.5665 19.0887 72.4941 19.1353 72.4225 19.1813C72.3151 19.2504 72.2095 19.3184 72.1034 19.3858C71.5249 19.751 70.8967 19.9825 70.2168 20.0558C69.7612 20.1048 69.3053 20.1237 68.8434 20.094C68.1347 20.0483 67.4608 19.8883 66.8286 19.5726C65.8645 19.0913 65.1859 18.3294 64.7251 17.3633C64.4758 16.8412 64.3143 16.2915 64.2078 15.7252C64.0927 15.1151 64.0568 14.498 64.0713 13.8775C64.0728 13.8016 64.1015 13.7817 64.1714 13.7841C64.2568 13.787 64.3424 13.7864 64.428 13.7858C64.4628 13.7856 64.4977 13.7854 64.5326 13.7854H73.0454C73.214 13.7854 73.214 13.7849 73.2144 13.6334L73.2144 13.6181C73.2162 12.9974 73.1519 12.3842 73.0361 11.7745C72.9112 11.1182 72.7185 10.4846 72.4282 9.88295C72.1547 9.31592 71.8062 8.80153 71.366 8.34625C70.8784 7.84193 70.3113 7.45685 69.6706 7.1874C69.1683 6.97628 68.6394 6.8524 68.096 6.77781C67.3607 6.67689 66.6297 6.70012 65.8998 6.79897C65.3051 6.8795 64.7191 7.00803 64.1657 7.24935L64.1368 7.26196C63.8328 7.39456 63.5275 7.52776 63.2379 7.68837C62.5077 8.09332 61.8849 8.62964 61.3547 9.27643C60.9728 9.74203 60.6426 10.243 60.3964 10.7891C60.1965 11.2328 60.0432 11.6994 59.8933 12.1637C59.6849 12.809 59.608 13.4811 59.569 14.1542C59.521 14.9816 59.6044 15.8019 59.7904 16.6102C59.9596 17.3458 60.2269 18.045 60.6067 18.6972C61.026 19.4175 61.5508 20.0493 62.1992 20.5805C62.9531 21.1984 63.7962 21.6387 64.7261 21.9182C65.3539 22.1069 65.9966 22.2086 66.6506 22.2452C67.2838 22.2806 67.912 22.2411 68.5369 22.1355C69.0504 22.0488 69.5496 21.9061 70.0331 21.7182C70.5166 21.5303 70.9798 21.2952 71.4124 21.0064C72.0072 20.6097 72.5441 20.149 72.9713 19.5706C72.9902 19.545 73.0044 19.489 72.9902 19.4707C72.9066 19.362 72.8187 19.2563 72.7297 19.1493L72.7297 19.1493L72.7295 19.149ZM68.7037 12.5665C68.7016 12.5872 68.6993 12.6092 68.6974 12.6332C68.6435 12.6332 68.5908 12.6329 68.5389 12.6327H68.5388C68.432 12.6321 68.3284 12.6316 68.2247 12.6335C67.0046 12.6562 65.7845 12.6797 64.5643 12.7042C64.4353 12.7068 64.3066 12.7148 64.1778 12.7233C64.1017 12.7285 64.063 12.7034 64.0731 12.6213C64.0901 12.4823 64.1059 12.343 64.1216 12.2038L64.1217 12.2035L64.1217 12.2031L64.1217 12.2029C64.1571 11.8908 64.1924 11.5787 64.2418 11.2687C64.2937 10.9435 64.3708 10.6208 64.4598 10.3036C64.6379 9.66899 64.8835 9.06195 65.2803 8.52769C65.6072 8.08764 66.0118 7.75289 66.5766 7.6863C67.0441 7.63133 67.4342 7.80038 67.7438 8.15655C68.0106 8.46343 68.1749 8.82554 68.2962 9.20623C68.5281 9.93431 68.6399 10.6846 68.6716 11.4473C68.6855 11.7823 68.6989 12.117 68.7106 12.452C68.7118 12.4883 68.708 12.5246 68.7037 12.5664V12.5664V12.5665ZM84.9665 8.72765L84.9801 9.3821C84.9905 9.88827 85.0001 10.3558 85.0102 10.8231C85.013 10.9519 85.0169 11.0807 85.0249 11.2092C85.0298 11.2882 85.0107 11.3318 84.9227 11.3533C84.8384 11.3737 84.7555 11.4001 84.6726 11.4265L84.6726 11.4266C84.5962 11.4509 84.5198 11.4753 84.4423 11.495C84.4123 11.5024 84.3453 11.4655 84.3352 11.4356C84.1159 10.7929 83.8538 10.1689 83.5037 9.58608C83.1061 8.92432 82.6042 8.36064 81.8792 8.0517C81.6073 7.93582 81.3083 7.86252 81.0147 7.82432C80.7208 7.78612 80.413 7.78096 80.1199 7.82277C79.4155 7.92317 78.923 8.33483 78.6353 8.97568C78.3946 9.51201 78.3634 10.0757 78.5484 10.6355C78.6699 11.0033 78.932 11.28 79.2251 11.5244C79.5693 11.8114 79.956 12.0333 80.3591 12.2225C80.882 12.4679 81.4123 12.6983 81.942 12.9284L81.9907 12.9496C82.1449 13.0166 82.3012 13.0792 82.4574 13.1418L82.4576 13.1419C82.7025 13.24 82.9473 13.3381 83.184 13.4531C83.8919 13.7972 84.5519 14.2173 85.053 14.8404C85.4919 15.3863 85.7179 16.0199 85.7924 16.7155C85.851 17.26 85.8231 17.8002 85.7063 18.3298C85.5367 19.099 85.1962 19.7873 84.659 20.3747C84.1863 20.8917 83.6239 21.2768 82.9936 21.572C82.3509 21.873 81.6741 22.0542 80.9744 22.1538C80.2579 22.2557 79.5378 22.2908 78.8154 22.2315C78.7132 22.2231 78.6109 22.215 78.5086 22.2069L78.5085 22.2069C78.0718 22.1724 77.6347 22.1378 77.2008 22.0807C76.7379 22.0198 76.2758 21.936 75.8225 21.8257C75.5016 21.7478 75.186 21.6489 74.8703 21.55C74.7242 21.5043 74.5782 21.4585 74.4316 21.4149C74.3439 21.3888 74.323 21.3351 74.3212 21.2443C74.2996 20.1596 74.2737 19.075 74.2477 17.9906L74.2475 17.9833L74.2435 17.8152C74.2383 17.5966 74.2309 17.378 74.2213 17.1594C74.218 17.0835 74.2386 17.0445 74.3214 17.0267C74.4675 16.9955 74.6117 16.9526 74.7533 16.9044C74.8596 16.8682 74.9081 16.8876 74.9512 17.0022C75.2185 17.7133 75.5325 18.4026 75.9559 19.037C76.2647 19.4998 76.6293 19.9146 77.0808 20.2418C77.7594 20.734 78.5313 20.9273 79.3598 20.8979C80.0007 20.8752 80.5807 20.6788 81.0479 20.2188C81.4019 19.8704 81.6057 19.4474 81.6782 18.9529C81.7267 18.6225 81.7074 18.3004 81.6174 17.9845C81.4734 17.4792 81.1207 17.1351 80.6978 16.8525C80.0912 16.4473 79.4176 16.1846 78.7414 15.9247C78.6139 15.8757 78.486 15.8275 78.358 15.7793C77.8683 15.5947 77.378 15.41 76.91 15.1808C76.1698 14.8185 75.5188 14.3247 75.0789 13.601C74.8836 13.2799 74.7404 12.9367 74.6506 12.571C74.4971 11.9448 74.4793 11.3107 74.5849 10.6789C74.6504 10.2863 74.7845 9.90947 74.9657 9.54969C75.266 8.95245 75.6842 8.45304 76.2023 8.03802C76.6048 7.7154 77.0421 7.44388 77.5285 7.26477L77.5789 7.24617C77.9157 7.12185 78.2545 6.9968 78.602 6.91272C78.8958 6.84156 79.199 6.80632 79.5012 6.7712C79.553 6.76518 79.6048 6.75916 79.6565 6.75296C80.3603 6.66831 81.0626 6.72122 81.7657 6.77929C82.4997 6.83968 83.2214 6.96408 83.9299 7.16075C84.1983 7.23528 84.4612 7.3305 84.7235 7.42553L84.7237 7.42558L84.8414 7.46815C84.8793 7.48182 84.9217 7.54506 84.9237 7.58739C84.9396 7.91695 84.9505 8.24667 84.9597 8.52199L84.9597 8.5235L84.9665 8.72765ZM37.1114 10.0417C37.1416 8.94032 37.1718 7.83875 37.2027 6.71665C37.0668 6.74376 36.9338 6.7704 36.8029 6.79664C36.5163 6.85408 36.2397 6.90953 35.9632 6.96339C35.7187 7.01075 35.4739 7.05704 35.2291 7.10333C34.935 7.15896 34.6408 7.2146 34.3471 7.27207C33.9957 7.34085 33.6445 7.41092 33.2933 7.48099C32.942 7.55107 32.5908 7.62115 32.2394 7.68993C31.7447 7.7866 31.2491 7.87949 30.7536 7.97234L30.736 7.97564C30.6681 7.98829 30.6276 8.01281 30.6304 8.09127C30.6348 8.21593 30.6353 8.34085 30.631 8.46525C30.6281 8.54087 30.6575 8.57107 30.7318 8.58036C30.8473 8.59479 30.9624 8.61166 31.0775 8.62852C31.1744 8.64272 31.2713 8.65692 31.3684 8.66966C31.8436 8.73186 32.2288 8.93318 32.4422 9.3833C32.5887 9.69275 32.6576 10.0262 32.6827 10.3659C32.6884 10.4438 32.6942 10.5218 32.7001 10.5998C32.7338 11.0488 32.7676 11.4983 32.7768 11.948C32.7977 12.9791 32.8111 14.011 32.8019 15.042C32.793 16.0106 32.7673 16.9792 32.7416 17.9477C32.7358 18.1651 32.73 18.3825 32.7245 18.5999C32.7105 19.146 32.6839 19.6924 32.4553 20.2027C32.2466 20.6685 31.8795 20.9209 31.3782 20.9893C31.2124 21.0119 31.047 21.0369 30.8805 21.062C30.8008 21.0741 30.7208 21.0861 30.6405 21.098V21.8653H30.8268L39.5849 21.8656C39.5954 21.8656 39.6061 21.8661 39.6168 21.8665C39.6455 21.8678 39.6743 21.8691 39.7002 21.8612C39.726 21.8534 39.7627 21.8222 39.7632 21.8011C39.7667 21.6149 39.7664 21.4288 39.7662 21.2436C39.7661 21.1953 39.766 21.1471 39.766 21.099C39.6572 21.0897 39.5503 21.0801 39.4448 21.0706C39.2068 21.0492 38.9757 21.0285 38.7443 21.0126C38.4234 20.9904 38.1122 20.9385 37.8418 20.7506C37.5036 20.5155 37.357 20.1575 37.3 19.7763C37.2174 19.2258 37.1534 18.6693 37.1287 18.1134C37.0825 17.0828 37.0518 16.0507 37.0495 15.0193C37.047 14.0346 37.0656 13.0499 37.0842 12.0652C37.0895 11.786 37.0947 11.5068 37.0995 11.2276C37.1005 11.1675 37.1364 11.0955 37.1787 11.0503C37.4553 10.7546 37.8173 10.6116 38.1963 10.5073C38.7162 10.3641 39.2461 10.3432 39.78 10.4046C40.2088 10.4539 40.6234 10.5618 41.0166 10.7398C41.1823 10.8149 41.3441 10.898 41.5079 10.9821C41.5819 11.0201 41.6563 11.0583 41.7316 11.096C41.7353 11.0907 41.7395 11.0855 41.7438 11.0803C41.7527 11.0692 41.7617 11.0581 41.7666 11.0454C41.8765 10.7644 41.986 10.4831 42.0955 10.2018C42.1755 9.99615 42.2556 9.79046 42.3358 9.58487C42.4807 9.21346 42.6259 8.84217 42.7712 8.47084C42.8303 8.31964 42.8895 8.16843 42.9486 8.0172C42.9814 7.93331 43.0144 7.84953 43.0474 7.76575C43.1166 7.59049 43.1857 7.41523 43.2525 7.23904C43.2812 7.16342 43.3015 7.09967 43.1924 7.04185C42.4695 6.65935 41.6998 6.59612 40.9134 6.7262C40.426 6.80673 39.9683 6.99488 39.5405 7.25143C38.622 7.8022 37.9618 8.59043 37.4473 9.51363C37.3764 9.64073 37.3103 9.7705 37.2442 9.90027C37.2137 9.95997 37.1833 10.0197 37.1524 10.0791L37.1106 10.0724L37.1114 10.0417Z"/>
</svg>
