<svg width="78" height="22" viewBox="0 0 78 22" fill="none" xmlns="http://www.w3.org/2000/svg">
<path fill-rule="evenodd" clip-rule="evenodd" d="M0.324707 0.631104V19.8538L19.541 0.631104H0.324707ZM1.69731 21.2269H20.9135V2.00417L1.69731 21.2269ZM35.1296 7.34295C35.1296 9.38799 33.9418 10.4825 31.7075 10.4825H29.3883V4.17425H31.7075C33.8851 4.17425 35.1296 5.03835 35.1296 7.22741V7.34295ZM31.8206 0.631104H24.8352V21.2268H29.3883V13.7376H31.9619C36.5721 13.7376 39.5415 11.6635 39.5415 7.31382V7.19894C39.5415 2.84896 36.7415 0.631104 31.8206 0.631104ZM48.6058 17.6837C50.7979 17.6837 51.908 16.7044 51.908 14.8318V14.717C51.908 12.8732 50.7979 11.8651 48.4949 11.8651H45.9419V17.6837H48.6058ZM48.7724 21.2268H41.5024V0.631104H54.433V4.26066H45.9699L45.9419 8.58117H48.911C53.4895 8.58117 56.2087 10.6265 56.2087 14.7454V14.861C56.2087 18.8934 53.6837 21.2268 48.7724 21.2268ZM64.2984 0.659866H59.5176V21.2268H64.2984V11.9932L71.5875 21.2268H77.1652L68.4004 10.3825L76.752 0.631104H71.6761L64.2984 9.51958V0.659866Z" fill="#E4ECEE"/>
</svg>
