<svg width="123" height="23" viewBox="0 0 123 23" fill="none" xmlns="http://www.w3.org/2000/svg">
<path fill-rule="evenodd" clip-rule="evenodd" d="M92.7862 7.67929H93.2381L93.033 0.890137H92.6214L91.2649 2.4947C90.2363 1.54838 89.1274 1.3016 88.3867 1.3016C84.6462 1.3016 82.0966 5.58043 82.0966 10.8061C82.0966 15.1673 84.152 20.3504 88.3867 20.3504C91.9227 20.3504 93.0738 16.3198 93.4437 13.2746L93.033 13.151C92.7042 15.5785 91.7989 18.7461 89.4968 18.7461C87.4414 18.7461 87.4006 15.6198 87.4006 14.7971V6.36281C87.4006 5.08737 87.4822 2.41285 89.2915 2.41285C90.9361 2.41285 92.3746 4.7172 92.7862 7.67929ZM44.0292 3.64724C44.0292 2.49519 44.3993 2.00163 45.016 2.00163C45.5917 2.00163 46.0026 2.49543 46.0026 3.64724V18.0485C46.0026 19.1585 45.5917 19.6528 45.016 19.6528C44.3993 19.6528 44.0292 19.1583 44.0292 18.0485V3.64724ZM38.6846 10.8474C38.6846 15.3735 40.8224 20.3509 45.0158 20.3509C49.2087 20.3509 51.3054 15.3735 51.3054 10.8474C51.3054 6.28046 49.2087 1.30209 45.0158 1.30209C40.8224 1.30209 38.6846 6.28046 38.6846 10.8474ZM15.7851 2.37157H14.5109V1.67204H25.8578V8.21392H25.4466C24.9112 2.41262 22.034 2.37133 21.1297 2.37133H20.8008V10.3946H21.0472C22.6917 10.3946 23.3497 8.3378 23.2674 6.48597H23.7196V14.9205H23.2674C23.3497 13.0689 22.6917 11.0529 21.0472 11.0529H20.8008V19.2819C24.254 19.3645 25.4464 16.1546 25.7342 12.9047H26.1862V19.9406H14.5105V19.2819H15.7851V2.37157ZM6.57651 10.0658V2.37159H7.23423L7.28353 2.37141C7.78021 2.36877 8.54993 2.36468 8.54993 4.59334V7.80272C8.54993 10.0676 7.75492 10.0665 7.25968 10.0658L7.23423 10.0658H6.57651ZM1.5193 19.2822H0.286379V19.9409H9.24842C11.4277 19.9409 13.6889 19.1583 13.6889 15.62C13.6889 13.193 12.8254 10.8887 9.45399 10.5593V10.2713C11.0988 10.1484 13.4011 9.36623 13.4011 5.95162C13.4011 2.08376 10.3996 1.67229 9.41346 1.67229H0.286133V2.37183H1.5193V19.2822ZM6.57651 19.2822V10.724H7.23423L7.25969 10.724C7.75516 10.7233 8.54993 10.7222 8.54993 12.9871V17.0181C8.54993 19.2839 7.75445 19.2829 7.25924 19.2822L7.23423 19.2822H6.57651ZM32.2722 19.2822V2.37182H31.4087C31.0388 2.37182 30.5864 2.41311 30.5864 3.85324V9.40751C30.5864 13.9331 30.4218 17.1017 28.9421 19.2822H32.2722ZM28.4486 2.37182V1.67228V1.67204H38.5623V2.37157H37.3292V19.2822H38.8914V22.9435H38.4803C38.398 20.2292 37.4114 19.9411 35.2322 19.9411H30.8745C28.6957 19.9411 27.7086 20.2292 27.6266 22.9435H27.2155V19.2824H27.4623C29.0654 19.2824 30.0932 16.8139 30.0932 9.40775V4.05872C30.0932 2.45441 29.5175 2.37182 29.1064 2.37182H28.4486ZM53.4856 3.77065H53.5267L57.0619 19.9409H57.7606L61.3373 3.85324H61.4194V19.2822H60.1862V19.9409H67.71V19.2822H66.4763V2.37157H67.71V1.67204H61.3786L59.7343 9.11943H59.6518L58.0487 1.67204H51.7176V2.37157H52.9922V17.0181C52.9922 19.0344 52.2517 19.3225 51.7176 19.2822V19.9409H55.0887V19.2822H54.7598C54.1844 19.2822 53.4856 19.0767 53.4856 17.0181V3.77065ZM73.6292 3.64724C73.6292 2.49519 74.0399 2.00163 74.6156 2.00163C75.2325 2.00163 75.6019 2.49543 75.6019 3.64724V18.0485C75.6019 19.1585 75.2325 19.6528 74.6156 19.6528C74.0399 19.6528 73.6292 19.1583 73.6292 18.0485V3.64724ZM68.3254 10.8474C68.3254 15.3735 70.4221 20.3509 74.6156 20.3509C78.808 20.3509 80.9465 15.3735 80.9465 10.8474C80.9465 6.28046 78.808 1.30209 74.6156 1.30209C70.4221 1.30209 68.3254 6.28046 68.3254 10.8474ZM97.9267 2.37159L97.9245 2.37178V2.37159H97.925H97.9267ZM97.9245 2.37178C95.5824 2.57962 94.7606 6.24007 94.5966 8.21418H94.185V1.67229H106.724V8.21418H106.272C106.107 6.23969 105.284 2.57732 102.981 2.37159V19.2822H104.462V19.9409H96.4035V19.2822H97.9245V2.37178ZM113.96 14.4272H113.879V2.37159H114.495V1.67229H107.586V2.37159H108.822V19.2822H107.586V19.9409H114.495V19.2822H113.879V17.2659L115.77 6.48623H115.851V19.2822H115.234V19.9409H122.141V19.2822H120.908V2.37159H122.141V1.67229H115.234V2.37159H115.851V3.60598L113.96 14.4272Z" fill="#E4ECEE"/>
</svg>
