<svg width="48" height="44" viewBox="0 0 48 44" fill="none" xmlns="http://www.w3.org/2000/svg">
    <path d="M37.9371 20.2567C41.3703 20.2567 43.955 18.8375 45.8607 16.3669L43.3137 14.4388C42.6845 15.2615 41.8714 15.9279 40.9384 16.3857C40.0054 16.8434 38.978 17.0799 37.9371 17.0765C34.2111 17.0765 31.5112 14.0647 31.5112 10.3691C31.5112 6.67345 34.1671 3.49203 38.0434 3.49203C39.7665 3.49203 40.9843 3.89565 42.0466 4.54865V7.7982H45.2518V3.06013L44.6377 2.58064C42.8758 1.20522 40.1849 0.475098 37.9358 0.475098C32.4375 0.475098 27.9653 4.91243 27.9653 10.3678C27.9653 15.8181 32.435 20.2567 37.9358 20.2567H37.9371ZM44.5872 39.7695L44.4732 35.2152V24.1014H37.7881V27.2828H41.097V34.8232C41.097 38.0715 38.5966 40.3711 36.0741 40.3711C33.5517 40.3711 32.2354 38.6358 32.2354 35.3888V24.1001H25.9909V27.2815H28.8592V35.9402C28.8592 40.3467 31.3493 43.3829 35.7904 43.3829C38.3426 43.3829 40.286 41.9779 41.4455 39.8119H41.4973L41.9546 42.8404H47.0915V39.7734H44.5911V39.767L44.5872 39.7695ZM27.2269 0.941719H21.656L16.8107 14.9015H16.7355L11.9161 0.941719H5.97988V4.12443H9.31851L15.0643 20.0356H18.1166V20.0317L24.1085 4.12573H27.2243V0.943013L27.2269 0.941719ZM0.766602 42.8816H4.06766V39.6076H0.767897V42.8816H0.766602ZM13.5148 27.7906H13.4785L13.2712 24.1014H7.37907V27.0013H10.5143V39.7708H7.37907V42.8391H21.941V39.8312H13.8335V32.1251C14.2001 29.3357 16.308 26.9538 19.1841 26.9538H19.2359L19.1776 29.8049H22.3828V24.0487H19.8487C16.9467 24.0409 14.7935 25.5989 13.5135 27.7919L13.5148 27.7906Z" fill="#E4ECEE"/>
</svg>
