<svg width="107" height="25" viewBox="0 0 107 25" fill="none" xmlns="http://www.w3.org/2000/svg">
    <path d="M106.259 18.5712C106.259 18.5712 105.856 19.0135 105.318 19.3238C104.331 19.8994 103.3 20.209 102.18 20.3417C101.821 20.3859 101.507 20.3859 101.149 20.3859C96.8901 20.3859 94.6937 17.731 94.6937 14.1017C94.6937 9.0122 98.9522 7.81741 101.731 7.81741C102.538 7.81741 103.344 7.95008 104.151 8.30387C105.362 8.8353 106.124 9.94089 106.124 11.0922C106.124 12.2435 105.451 13.0838 104.151 13.0838C103.389 13.0838 102.852 12.7742 102.583 12.1543C102.448 11.8448 102.448 11.5344 102.404 11.2249C102.359 10.9153 102.359 10.605 102.224 10.2954C102.045 9.764 101.552 9.45443 101.059 9.49866C100.701 9.49866 100.386 9.63133 100.118 9.94089C99.7593 10.3389 99.6249 10.8703 99.6249 11.401C99.5353 13.1272 99.7145 14.8527 100.611 16.402C101.329 17.6853 102.584 18.4378 103.883 18.4378C104.242 18.4378 104.646 18.3936 105.004 18.2609C105.407 18.1282 105.766 17.9513 106.125 17.7295L106.259 18.5705V18.5712ZM29.2493 17.5976C29.2493 17.5976 29.3837 18.3059 29.4285 18.4386C29.3837 18.527 29.1149 18.7481 29.0701 18.7923C27.9943 19.6333 25.7531 20.3409 24.4085 20.3409C20.15 20.3409 17.5952 18.1282 17.5952 14.0567C17.5952 10.0293 20.8675 7.81666 24.0502 7.81666C26.8297 7.81666 29.1605 9.23257 29.1605 12.4631C29.1605 12.7285 29.1605 12.7285 29.1605 12.9054L23.0191 15.3834L23.1983 15.7814C23.5119 16.4897 23.9158 17.1531 24.6325 17.6845C25.7531 18.5255 27.5016 18.5697 28.891 17.8172C28.9806 17.773 29.0701 17.6845 29.2493 17.5961V17.5976ZM22.66 14.1901C23.0632 14.0132 24.1838 13.526 24.2734 13.4818C24.7213 13.2607 24.9012 13.0838 24.946 12.7292C24.9908 12.4197 24.946 11.4902 24.946 11.2691C24.8565 10.1185 24.4533 9.49866 23.915 9.49866C22.436 9.49866 22.1665 11.4902 22.66 14.1893V14.1901ZM90.7495 6.13617C92.2285 6.13617 93.3939 4.98561 93.3939 3.52548C93.3939 2.06536 92.1837 0.914795 90.7495 0.914795C89.2706 0.914795 88.1052 2.06536 88.1052 3.52548C88.1052 4.98561 89.2706 6.13617 90.7495 6.13617ZM18.4015 19.0142V19.8994H11.9018C10.6468 17.731 9.5262 15.6952 8.2712 13.571C8.2264 13.571 8.13681 13.5267 8.09202 13.5267C8.09202 14.8542 8.09202 16.7131 8.09202 17.3772C8.09202 18.572 8.49517 19.0142 9.70537 19.0142C9.75017 19.0142 9.83976 19.0142 9.88455 19.0142V19.8994H0.785246V19.0584C1.09881 19.0142 1.36833 19.0142 1.68189 18.97C2.21942 18.8373 2.57853 18.4386 2.62333 17.8636C2.62333 17.731 2.62333 8.56996 2.62333 7.59704C2.62333 7.3317 2.53374 7.11059 2.35456 6.93294C1.90662 6.49071 1.14436 5.73816 0.741211 5.34015C0.875594 5.29592 1.00998 5.2517 1.14436 5.16325L7.77846 2.46412V4.45568C7.77846 4.45568 8.00243 4.01344 8.45113 3.57046C9.03422 3.03977 9.9749 2.64101 11.1851 2.64101C12.8432 2.64101 14.4574 3.52623 15.3092 4.80946C15.9819 5.82735 16.3402 6.97792 16.3402 8.12848C16.3402 12.0231 12.9336 13.7044 10.0645 13.7044C9.9749 13.7044 9.88531 13.7044 9.79572 13.7044L9.75093 13.8371C10.558 14.1024 11.5442 14.1908 12.3505 14.1908C13.1128 14.1908 13.9191 14.1024 14.4126 14.014L16.7882 18.2182C17.2809 19.1034 18.1776 19.015 18.4015 19.015V19.0142ZM7.95764 8.43729C7.95764 10.5615 7.95764 12.2428 9.34702 12.2428C10.7364 12.2428 10.7364 10.5165 10.7364 8.43654C10.7364 6.31231 10.602 4.63107 9.34702 4.63107C8.09202 4.63107 7.95764 6.31306 7.95764 8.43654V8.43729ZM85.1905 18.97C84.5178 18.9258 84.1595 18.572 84.1595 17.9521C84.1595 17.8194 84.1595 17.6425 84.1595 17.5099V2.10958L77.3014 4.89791C77.3014 4.89791 78.1085 5.73891 78.5564 6.13692C78.6908 6.26959 78.7804 6.44648 78.8252 6.6676C78.8252 10.1193 78.8252 14.1466 78.8252 17.5541C78.8252 17.6868 78.8252 17.8636 78.7804 17.9963C78.6908 18.6162 78.3772 18.8815 77.7493 18.9258C77.5702 18.9258 77.391 18.9258 77.211 18.9258V19.811H85.728V18.9258C85.5489 18.97 85.3697 18.97 85.1897 18.97H85.1905ZM93.9762 18.97C93.3484 18.9258 92.99 18.572 92.9452 17.9521C92.9452 17.8194 92.9452 13.2172 92.9452 13.2172V7.68549L86.1319 10.4738C86.1319 10.4738 86.939 11.3148 87.3869 11.7128C87.5661 11.8897 87.6557 12.1108 87.6557 12.4654C87.6557 12.4654 87.6557 17.6433 87.6557 17.776C87.6557 18.6169 87.2526 19.015 86.5799 19.015C86.4007 19.015 86.2215 19.015 86.0416 19.015V19.9002H94.5586V19.015C94.3346 18.9707 94.1554 18.9707 93.9755 18.9707L93.9762 18.97ZM61.0753 18.97C60.3578 18.9258 59.9994 18.572 59.9546 17.8636C59.9546 17.731 59.9546 7.64127 59.9546 7.64127L53.0966 10.4296C53.0966 10.4296 53.9036 11.2706 54.3516 11.6686C54.4859 11.8013 54.5755 11.9782 54.6203 12.2C54.6203 13.041 54.6203 15.9613 54.6203 16.5812C54.6203 17.2895 54.082 17.776 53.3653 17.776C52.7375 17.776 52.1999 17.2895 52.1999 16.5812C52.1999 16.4043 52.1999 7.59779 52.1999 7.59779L45.3418 10.3861C45.3418 10.3861 46.1489 11.2271 46.5968 11.6251C46.776 11.802 46.8656 12.0231 46.8656 12.2892C46.8656 12.3335 46.8656 16.803 46.8656 16.803C46.8656 18.5293 47.8966 19.8125 49.51 20.122C49.9579 20.2105 50.3618 20.2547 50.765 20.2547C52.244 20.2547 53.499 19.6791 54.5748 18.4843C54.6196 18.3958 54.7092 18.3516 54.754 18.2632C54.7987 18.2632 54.8435 18.3074 54.8435 18.3074V19.8117H61.4776V18.9265C61.3881 18.9707 61.2089 18.9707 61.0745 18.9707L61.0753 18.97ZM43.9517 10.0301C44.6244 11.048 44.9379 12.3312 44.9827 13.7029C44.9827 15.4291 44.4444 17.1988 43.2342 18.4378C42.1584 19.4999 40.5451 20.3851 38.1239 20.3851C37.6312 20.3851 37.1377 20.2967 36.6001 20.164C36.6001 20.164 36.6001 22.3325 36.6001 22.8189C36.6001 23.6599 36.9585 24.0137 37.8103 24.0579C37.9447 24.0579 38.0791 24.0579 38.2135 24.0579V24.9432H29.6965V24.1022C29.9205 24.1022 30.1445 24.0579 30.414 24.0579C30.9523 23.9695 31.3106 23.6599 31.3106 23.1285C31.3106 22.9958 31.3106 15.9148 31.3106 12.4631C31.3106 12.1536 31.221 11.9317 31.0419 11.7106C30.5939 11.3126 29.7869 10.4716 29.7869 10.4716L36.421 7.77244V9.67555L36.5105 9.71977C36.5105 9.71977 36.7793 9.23332 37.0936 8.923C37.9903 8.12623 38.8869 7.90511 39.8732 7.90511C41.4417 7.81666 43.1006 8.70188 43.9525 10.0293L43.9517 10.0301ZM39.3797 14.3228C39.3797 11.8448 39.2453 9.80897 37.9903 9.80897C36.7353 9.80897 36.6009 11.8448 36.6009 14.3228C36.6009 16.8008 36.6009 18.8366 37.9903 18.8366C39.3797 18.8366 39.3797 16.8008 39.3797 14.3228V14.3228ZM75.4193 9.72052C76.3159 10.8711 76.6743 12.1543 76.6743 13.6594C76.6743 15.6952 76.0912 17.4207 74.4778 18.7931C73.4468 19.6783 71.8783 20.3417 69.637 20.3417C68.5612 20.3417 67.4854 20.1648 66.4544 19.6333C65.9616 19.368 65.5129 19.1019 65.0202 18.7481C64.6618 19.0577 63.7652 19.8545 63.7652 19.8545H63.0029V6.84375C63.0029 6.53418 62.9133 6.31306 62.7342 6.0912C62.2862 5.69318 61.4792 4.85219 61.4792 4.85219L68.3372 2.06386V9.32176L68.4268 9.36599C68.4268 9.36599 69.3235 7.77319 71.6543 7.77319C73.1333 7.81741 74.5234 8.52574 75.4193 9.72052V9.72052ZM71.116 14.3228C71.116 11.8448 70.9816 9.80897 69.7266 9.80897C68.4716 9.80897 68.3372 11.8448 68.3372 14.3228C68.3372 16.8008 68.3372 18.8366 69.7266 18.8366C71.116 18.7923 71.116 16.8008 71.116 14.3228V14.3228Z" fill="#E4ECEE"/>
</svg>
