<svg width="126" height="21" viewBox="0 0 126 21" fill="none" xmlns="http://www.w3.org/2000/svg">
    <path fill-rule="evenodd" clip-rule="evenodd" d="M17.0978 0.631104H9.40096V4.86059H17.0978V0.631104ZM109.46 6.27042H105.987C104.654 6.27042 103.503 6.33174 102.9 6.47414C101.958 6.6983 101.208 7.18962 100.655 7.95093C100.003 8.8222 99.664 9.83798 99.664 10.8848V20.3687H103.862V11.2048C103.876 9.64766 105.122 9.09007 105.822 9.09007H109.46V6.27042ZM91.2675 20.3687V6.27042H87.0692V20.3687H91.2675ZM48.6493 6.62569C48.0042 6.38955 47.2093 6.27042 45.8742 6.27042H38.7889V9.10065L44.2572 9.08584L46.1254 9.0943C47.3541 9.10699 48.1875 10.3469 48.1231 11.1104L48.1343 11.9189L41.3128 11.9238C40.1989 11.9238 39.5586 12.0867 38.8218 12.9051C38.085 13.7044 37.6274 14.7632 37.6274 16.0067C37.6274 17.1839 38.0361 18.5803 38.8365 19.3501C39.6356 20.1227 40.6236 20.3687 41.7697 20.3687H52.0975V12.3855C52.0975 10.7638 51.9769 10.3852 51.8158 9.87918C51.7863 9.78672 51.7555 9.69002 51.7239 9.58069C51.4076 8.81797 51.0073 8.25334 50.3944 7.64077C49.9256 7.18257 49.3084 6.84562 48.6493 6.62569ZM25.4944 6.27746V0.631104H21.3451V20.3687H30.3056C32.0227 20.3687 33.4123 19.7639 34.5067 18.2518C35.5115 16.8519 36.0223 15.1974 36.0223 13.2794C36.0223 11.4396 35.5115 9.83446 34.492 8.49794C33.3956 7.06344 32.0045 6.34443 30.3532 6.27746H25.4944ZM74.4743 13.3513V0.631104H70.2761V20.3687H74.4743V13.3583L79.9426 20.3687H84.97L79.0498 13.3555L84.956 6.34443H79.9713L74.4743 13.3513ZM65.0842 6.47414C64.5083 6.33104 63.5721 6.27042 62.2951 6.27042H54.1826V20.3518L58.3809 20.3687V9.08302L61.6605 9.07738C61.6605 9.07738 63.9863 9.01324 63.994 11.3373L63.9786 20.3687H68.1769L68.1685 10.8347C68.1685 9.78794 67.8564 8.8215 67.2351 7.95023C66.7054 7.18962 65.9889 6.6983 65.0842 6.47414ZM115.791 15.3018L115.806 6.27042H111.608L111.617 15.8044C111.617 16.8512 111.929 17.8176 112.551 18.6889C113.08 19.4495 113.796 19.9408 114.701 20.165C115.277 20.3081 116.214 20.3687 117.491 20.3687H125.602V6.28733L121.404 6.27042V17.5561L118.125 17.5617C118.125 17.5617 115.799 17.6259 115.791 15.3018ZM25.4734 9.09007H28.9125H28.9132C29.8655 9.09007 30.6373 9.51372 31.253 10.385C31.8751 11.2492 32.1767 12.2495 32.1767 13.3759C32.1767 14.4707 31.8884 15.4554 31.316 16.2894C30.7562 17.1212 30.0152 17.549 29.0937 17.549H25.4734V9.09007ZM42.743 14.7385L48.1042 14.7294L48.1231 17.5483H42.6968C42.6612 17.5483 42.6266 17.5485 42.593 17.5487C42.2257 17.5508 41.9764 17.5522 41.6648 17.2932C41.3408 17.0147 41.126 16.6637 41.126 16.2266C41.126 15.7388 41.3485 15.3398 41.6872 15.0445C42.0468 14.7463 42.743 14.7385 42.743 14.7385ZM91.2675 1.33602H87.0692V4.86059H91.2675V1.33602ZM93.3666 16.8441H97.5649V20.3687H93.3666V16.8441ZM5.20269 8.38516H17.0978V12.6146H5.20269V8.38516ZM17.0978 16.1392H0.304688V20.3687H17.0978V16.1392Z" fill="#E4ECEE"/>
</svg>
